<svg width="45" height="24" viewBox="0 0 45 24" fill="none" xmlns="http://www.w3.org/2000/svg">
<rect width="44" height="24" transform="translate(0.5)" fill="none"/>
<path d="M11.3382 7.76214C12.9886 6.88055 14.864 7.34885 16.1464 7.89689L19.9691 9.53057L26.5437 6.5L30.4591 6.65417L25.03 11.6984L28.49 13.2047L32.0898 11.9491L34.5 12.9791L32.3218 15.458C32.552 15.7096 32.7605 16.0638 32.5712 16.4359C32.3239 16.9218 31.5931 17.1667 30.3943 17.1667C30.1485 17.1667 29.8829 17.1564 29.5979 17.1357C28.282 17.0405 26.8553 16.7326 25.9633 16.3514L12.2984 10.5116C11.1182 10.0072 10.5303 9.47755 10.5011 8.8923C10.486 8.58876 10.6189 8.14618 11.3382 7.76214Z" fill="#0090BD"/>
</svg>
